REM DIRINDEX 1\2,1\3,1\4,1\5
REM DIRNAME folder01,folder02,folder03,folder04,folder05
TITLE ""
FILE "1Q_t_1639-1648.mp3" MP3
  TRACK 01 AUDIO
    TITLE "3:cjc004_5824"
    INDEX 01 00:00:00
  TRACK 02 AUDIO
    TITLE "0:"
    INDEX 01 00:01:03
  TRACK 03 AUDIO
    TITLE "4:cjc004_5825"
    INDEX 01 00:01:32
  TRACK 04 AUDIO
    TITLE "0:"
    INDEX 01 00:03:21
  TRACK 05 AUDIO
    TITLE "5:cjc004_5826"
    INDEX 01 00:03:49
  TRACK 06 AUDIO
    TITLE "0:"
    INDEX 01 00:08:72
  TRACK 07 AUDIO
    TITLE "3:cjc004_5827"
    INDEX 01 00:09:49
  TRACK 08 AUDIO
    TITLE "0:"
    INDEX 01 00:11:13
  TRACK 09 AUDIO
    TITLE "4:cjc004_5828"
    INDEX 01 00:11:40
  TRACK 10 AUDIO
    TITLE "0:"
    INDEX 01 00:12:56
  TRACK 11 AUDIO
    TITLE "5:cjc004_5829"
    INDEX 01 00:13:08
  TRACK 12 AUDIO
    TITLE "0:"
    INDEX 01 00:17:39
  TRACK 13 AUDIO
    TITLE "3:cjc004_5830"
    INDEX 01 00:18:19
  TRACK 14 AUDIO
    TITLE "0:"
    INDEX 01 00:19:34
  TRACK 15 AUDIO
    TITLE "4:cjc004_5831"
    INDEX 01 00:19:62
  TRACK 16 AUDIO
    TITLE "0:"
    INDEX 01 00:20:61
  TRACK 17 AUDIO
    TITLE "5:cjc004_5832"
    INDEX 01 00:21:13
  TRACK 18 AUDIO
    TITLE "0:"
    INDEX 01 00:26:56
  TRACK 19 AUDIO
    TITLE "3:cjc004_5833"
    INDEX 01 00:27:30
  TRACK 20 AUDIO
    TITLE "0:"
    INDEX 01 00:28:39
  TRACK 21 AUDIO
    TITLE "4:cjc004_5834"
    INDEX 01 00:28:68
  TRACK 22 AUDIO
    TITLE "0:"
    INDEX 01 00:29:74
  TRACK 23 AUDIO
    TITLE "5:cjc004_5835"
    INDEX 01 00:30:28
  TRACK 24 AUDIO
    TITLE "0:"
    INDEX 01 00:35:08
  TRACK 25 AUDIO
    TITLE "3:cjc004_5836"
    INDEX 01 00:35:59
  TRACK 26 AUDIO
    TITLE "0:"
    INDEX 01 00:36:64
  TRACK 27 AUDIO
    TITLE "4:cjc004_5837"
    INDEX 01 00:37:16
  TRACK 28 AUDIO
    TITLE "0:"
    INDEX 01 00:38:30
  TRACK 29 AUDIO
    TITLE "5:cjc004_5838"
    INDEX 01 00:38:53
  TRACK 30 AUDIO
    TITLE "0:"
    INDEX 01 00:43:64
  TRACK 31 AUDIO
    TITLE "3:cjc004_5839"
    INDEX 01 00:44:46
  TRACK 32 AUDIO
    TITLE "0:"
    INDEX 01 00:45:65
  TRACK 33 AUDIO
    TITLE "4:cjc004_5840"
    INDEX 01 00:46:09
  TRACK 34 AUDIO
    TITLE "0:"
    INDEX 01 00:47:13
  TRACK 35 AUDIO
    TITLE "5:cjc004_5841"
    INDEX 01 00:47:36
  TRACK 36 AUDIO
    TITLE "0:"
    INDEX 01 00:52:02
  TRACK 37 AUDIO
    TITLE "3:cjc004_5842"
    INDEX 01 00:52:51
  TRACK 38 AUDIO
    TITLE "0:"
    INDEX 01 00:54:01
  TRACK 39 AUDIO
    TITLE "4:cjc004_5843"
    INDEX 01 00:54:21
  TRACK 40 AUDIO
    TITLE "0:"
    INDEX 01 00:55:34
  TRACK 41 AUDIO
    TITLE "5:cjc004_5844"
    INDEX 01 00:55:59
  TRACK 42 AUDIO
    TITLE "0:"
    INDEX 01 01:00:23
  TRACK 43 AUDIO
    TITLE "3:cjc004_5845"
    INDEX 01 01:01:01
  TRACK 44 AUDIO
    TITLE "0:"
    INDEX 01 01:02:22
  TRACK 45 AUDIO
    TITLE "4:cjc004_5846"
    INDEX 01 01:02:46
  TRACK 46 AUDIO
    TITLE "0:"
    INDEX 01 01:03:49
  TRACK 47 AUDIO
    TITLE "5:cjc004_5847"
    INDEX 01 01:03:73
  TRACK 48 AUDIO
    TITLE "0:"
    INDEX 01 01:09:24
  TRACK 49 AUDIO
    TITLE "3:cjc004_5848"
    INDEX 01 01:10:00
  TRACK 50 AUDIO
    TITLE "0:"
    INDEX 01 01:11:19
  TRACK 51 AUDIO
    TITLE "4:cjc004_5849"
    INDEX 01 01:11:49
  TRACK 52 AUDIO
    TITLE "0:"
    INDEX 01 01:12:68
  TRACK 53 AUDIO
    TITLE "5:cjc004_5850"
    INDEX 01 01:13:24
  TRACK 54 AUDIO
    TITLE "0:"
    INDEX 01 01:18:31
  TRACK 55 AUDIO
    TITLE "3:cjc004_5851"
    INDEX 01 01:19:09
  TRACK 56 AUDIO
    TITLE "0:"
    INDEX 01 01:20:20
  TRACK 57 AUDIO
    TITLE "4:cjc004_5852"
    INDEX 01 01:20:46
  TRACK 58 AUDIO
    TITLE "0:"
    INDEX 01 01:21:57
  TRACK 59 AUDIO
    TITLE "5:cjc004_5853"
    INDEX 01 01:22:05
  TRACK 60 AUDIO
    TITLE "0:"
    INDEX 01 01:27:67
